<?xml version="1.0" standalone="no"?>
<!DOCTYPE svg PUBLIC "-//W3C//DTD SVG 20010904//EN"
 "http://www.w3.org/TR/2001/REC-SVG-20010904/DTD/svg10.dtd">
<svg version="1.0" xmlns="http://www.w3.org/2000/svg"
 width="512.000000pt" height="512.000000pt" viewBox="0 0 512.000000 512.000000"
 preserveAspectRatio="xMidYMid meet">

<g transform="translate(0.000000,512.000000) scale(0.100000,-0.100000)"
fill="#000000" stroke="none">
<path d="M485 5101 c-48 -22 -79 -54 -100 -103 -13 -32 -15 -100 -15 -450 0
-400 1 -413 21 -456 15 -29 37 -54 67 -73 l46 -29 2053 0 c2019 0 2054 0 2092
20 48 24 87 70 101 118 14 53 13 789 -2 849 -14 57 -68 114 -124 131 -32 9
-497 12 -2070 12 -1951 0 -2031 -1 -2069 -19z m2777 -301 c100 -28 178 -135
178 -244 0 -145 -109 -257 -250 -260 -76 -1 -140 26 -190 80 -54 59 -70 99
-70 176 1 178 159 296 332 248z m849 -2 c66 -22 118 -68 151 -135 27 -56 30
-70 26 -126 -12 -143 -116 -240 -259 -241 -54 0 -74 5 -120 30 -123 69 -171
222 -109 344 24 47 98 113 142 127 45 15 128 15 169 1z"/>
<path d="M2465 3584 c-525 -53 -944 -333 -1170 -783 -100 -200 -148 -405 -148
-636 0 -386 145 -734 417 -1005 371 -369 897 -502 1411 -355 118 33 330 139
430 215 488 367 688 967 520 1555 -14 50 -52 144 -84 210 -234 479 -694 777
-1231 799 -58 2 -123 2 -145 0z m365 -398 c373 -103 657 -388 757 -761 23 -89
26 -118 26 -260 0 -140 -3 -172 -26 -257 -119 -450 -508 -770 -967 -795 -506
-28 -943 297 -1082 804 -31 112 -31 382 -1 493 36 132 81 234 145 331 161 244
410 409 701 465 114 22 329 12 447 -20z"/>
<path d="M1859 2431 c-20 -16 -24 -30 -27 -95 -5 -87 8 -128 44 -145 35 -16
48 -14 78 10 25 19 26 25 26 113 0 84 -2 95 -23 114 -29 27 -67 28 -98 3z"/>
<path d="M3176 2429 c-25 -19 -26 -25 -26 -114 0 -89 1 -95 26 -114 35 -27 57
-26 90 3 24 20 28 32 32 89 5 79 -2 111 -28 137 -26 26 -60 25 -94 -1z"/>
<path d="M2342 2107 c-39 -41 -30 -81 32 -142 113 -113 269 -113 382 0 63 62
72 105 31 143 -37 35 -72 28 -121 -22 -70 -73 -137 -71 -207 5 -44 46 -83 52
-117 16z"/>
<path d="M632 194 c3 -146 3 -146 31 -170 28 -24 29 -24 267 -24 154 0 248 4
263 11 39 18 47 50 47 194 l0 135 -306 0 -306 0 4 -146z"/>
<path d="M3890 205 c0 -144 8 -176 47 -194 15 -7 109 -11 262 -11 226 0 240 1
265 21 l26 20 0 150 0 149 -300 0 -300 0 0 -135z"/>
</g>
</svg>
