<?xml version="1.0" standalone="no"?>
<!DOCTYPE svg PUBLIC "-//W3C//DTD SVG 20010904//EN"
 "http://www.w3.org/TR/2001/REC-SVG-20010904/DTD/svg10.dtd">
<svg version="1.0" xmlns="http://www.w3.org/2000/svg"
 width="512.000000pt" height="512.000000pt" viewBox="0 0 512.000000 512.000000"
 preserveAspectRatio="xMidYMid meet">

<g transform="translate(0.000000,512.000000) scale(0.100000,-0.100000)"
fill="#000000" stroke="none">
<path d="M1358 5061 c-76 -24 -115 -50 -177 -116 -63 -67 -97 -137 -111 -230
-5 -39 -10 -255 -10 -482 l0 -411 -222 -4 -223 -3 -68 -32 c-82 -39 -189 -138
-253 -235 -133 -199 -232 -510 -276 -868 -17 -137 -17 -572 0 -710 79 -635
319 -1073 621 -1130 29 -5 136 -10 237 -10 l184 0 0 -177 c1 -289 22 -373 121
-478 112 -119 169 -135 475 -135 l233 0 20 26 c26 33 27 65 2 95 -19 24 -22
24 -263 29 -270 6 -286 9 -355 82 -67 70 -73 96 -73 363 l0 240 43 27 c173
109 327 391 412 752 l28 119 38 -81 c74 -162 222 -361 352 -475 218 -191 495
-323 773 -368 116 -19 359 -16 478 5 761 137 1297 823 1235 1583 -29 356 -165
662 -408 915 -223 234 -471 371 -791 439 -140 30 -418 33 -555 6 -471 -95
-855 -383 -1064 -799 l-59 -117 -22 97 c-51 223 -132 430 -223 568 -50 75
-180 207 -216 219 -19 6 -21 14 -21 91 l0 84 1875 0 1875 0 -2 -1777 -3 -1778
-30 -54 c-28 -52 -80 -99 -135 -124 -18 -9 -376 -13 -1328 -17 l-1304 -5 -19
-24 c-25 -30 -24 -62 2 -95 l21 -26 1316 2 1317 3 65 31 c81 39 145 96 187
165 67 113 63 -50 63 2319 0 2369 4 2206 -63 2319 -42 69 -106 126 -187 165
l-65 31 -277 3 c-191 2 -284 0 -298 -8 -49 -26 -45 -105 6 -129 16 -7 111 -11
272 -12 162 0 258 -5 279 -12 60 -22 117 -72 148 -128 l30 -54 3 -317 3 -318
-755 0 -756 0 0 415 0 415 239 0 c226 0 240 1 265 21 33 26 36 79 6 109 -20
20 -33 20 -1287 19 -1196 0 -1271 -1 -1325 -18z m1952 -546 l0 -415 -1045 0
-1045 0 0 313 c0 292 2 315 21 357 33 73 95 128 169 151 14 4 447 8 963 8
l937 1 0 -415z m-2614 -886 c-160 -177 -286 -533 -338 -954 -19 -162 -16 -576
6 -740 49 -368 158 -685 301 -873 30 -40 55 -75 55 -78 0 -23 -125 24 -180 67
-352 278 -500 1294 -294 2014 106 368 283 602 458 605 l28 0 -36 -41z m454 11
c203 -104 367 -475 431 -975 20 -150 17 -560 -4 -715 -72 -519 -257 -893 -473
-956 -102 -29 -202 15 -301 135 -134 163 -241 465 -289 821 -22 155 -24 566
-5 715 34 269 100 514 183 679 135 271 299 377 458 296z m2195 5 c261 -54 482
-168 670 -347 206 -195 351 -464 400 -743 21 -118 21 -342 0 -460 -97 -551
-529 -985 -1085 -1090 -125 -24 -341 -25 -470 -1 -640 115 -1110 674 -1110
1321 0 205 46 398 139 590 205 419 589 687 1071 749 69 9 307 -3 385 -19z"/>
<path d="M1840 4797 c-185 -52 -273 -253 -184 -417 57 -104 151 -155 272 -148
112 6 190 58 244 161 34 64 32 184 -4 253 -63 120 -205 185 -328 151z m145
-166 c17 -10 39 -36 49 -59 24 -53 15 -102 -27 -149 -40 -43 -104 -55 -159
-29 -39 19 -78 79 -78 121 0 41 30 95 64 116 40 24 112 25 151 0z"/>
<path d="M2577 4799 c-140 -34 -227 -143 -227 -284 1 -165 121 -285 285 -285
145 1 254 92 286 239 13 63 -8 153 -50 215 -62 90 -191 141 -294 115z m154
-188 c35 -34 39 -44 39 -87 0 -86 -55 -144 -135 -144 -132 0 -184 166 -79 249
20 16 41 21 82 21 50 0 58 -3 93 -39z"/>
<path d="M1011 3417 c-51 -25 -171 -244 -171 -311 0 -36 33 -66 73 -66 42 0
57 16 98 109 l33 73 22 -43 c114 -225 181 -669 155 -1019 -14 -184 -44 -365
-82 -493 -30 -100 -82 -227 -94 -227 -12 0 -64 127 -94 227 -84 284 -109 659
-65 998 18 141 18 141 -6 165 -27 27 -83 27 -108 0 -23 -25 -39 -121 -54 -340
-29 -421 58 -903 207 -1151 52 -85 78 -109 119 -109 42 0 70 27 122 114 218
368 275 1103 128 1646 -65 240 -181 441 -252 440 -4 0 -18 -6 -31 -13z"/>
<path d="M2960 3419 c-158 -19 -349 -90 -481 -179 -87 -59 -229 -199 -288
-284 -366 -532 -211 -1245 344 -1579 72 -43 193 -92 290 -119 103 -29 351 -36
468 -14 416 79 753 392 865 805 23 87 26 113 26 276 0 164 -2 189 -27 280
-111 409 -445 722 -855 801 -99 19 -250 25 -342 13z m30 -987 c0 -4 -6 -17
-14 -28 -8 -11 -83 -216 -166 -455 -84 -239 -155 -440 -159 -447 -11 -19 -147
74 -229 156 -80 80 -160 198 -201 296 -48 119 -49 113 8 118 55 5 122 37 164
76 16 15 67 80 113 145 47 64 97 124 112 132 21 11 68 14 200 15 94 0 172 -3
172 -8z m565 -18 c13 -8 56 -66 94 -129 101 -162 146 -197 276 -218 87 -13 85
-4 25 -133 -133 -288 -389 -485 -699 -539 -106 -19 -175 -20 -168 -2 2 6 75
214 161 462 87 247 162 458 168 469 18 33 90 106 105 106 7 0 24 -7 38 -16z"/>
<path d="M3755 4737 c-145 -83 -96 -331 86 -432 l54 -30 335 0 c332 0 335 0
380 24 105 54 170 150 178 261 5 81 -12 127 -64 166 l-37 29 -446 3 -446 2
-40 -23z m883 -172 c-7 -54 -43 -106 -91 -129 -30 -14 -76 -16 -319 -16 -275
0 -284 1 -323 23 -58 33 -107 132 -78 160 3 4 188 7 411 7 l405 0 -5 -45z"/>
</g>
</svg>
